<?xml version="1.0" encoding="UTF-8" standalone="no"?>
<!-- Created with Inkscape (http://www.inkscape.org/) -->

<svg
   version="1.1"
   id="svg1"
   width="596"
   height="543.20001"
   viewBox="0 0 596 543.20001"
   sodipodi:docname="logo 6.svg"
   inkscape:version="1.4 (86a8ad7, 2024-10-11)"
   xmlns:inkscape="http://www.inkscape.org/namespaces/inkscape"
   xmlns:sodipodi="http://sodipodi.sourceforge.net/DTD/sodipodi-0.dtd"
   xmlns="http://www.w3.org/2000/svg"
   xmlns:svg="http://www.w3.org/2000/svg">
  <defs
     id="defs1" />
  <sodipodi:namedview
     id="namedview1"
     pagecolor="#505050"
     bordercolor="#eeeeee"
     borderopacity="1"
     inkscape:showpageshadow="0"
     inkscape:pageopacity="0"
     inkscape:pagecheckerboard="0"
     inkscape:deskcolor="#505050"
     inkscape:zoom="1.5335051"
     inkscape:cx="297.68404"
     inkscape:cy="271.60001"
     inkscape:window-width="1920"
     inkscape:window-height="1051"
     inkscape:window-x="-9"
     inkscape:window-y="-9"
     inkscape:window-maximized="1"
     inkscape:current-layer="g1" />
  <g
     inkscape:groupmode="layer"
     inkscape:label="Image"
     id="g1">
    <path
       style="fill:#ffffff;fill-opacity:1"
       d="m 139.80369,532.49211 c -0.68657,-0.68657 -0.96,-5.81333 -0.96,-18 v -17.04 h 14.4 14.4 v 15.94792 c 0,8.77136 -0.35109,16.87136 -0.7802,18 l -0.7802,2.05208 h -12.6598 c -8.77984,0 -12.95402,-0.29422 -13.6198,-0.96 z m 56.64,0.17775 c -0.99176,-0.62625 -1.24664,-3.74776 -1.46875,-17.98775 l -0.26875,-17.23 h 14.86875 14.86875 v 16.45259 c 0,9.81132 -0.33429,17.07723 -0.82815,18.00001 -0.76528,1.42994 -1.78243,1.54647 -13.4,1.53515 -6.91452,-0.007 -13.11185,-0.35324 -13.77185,-0.77 z m 55.70874,-2.92941 c -0.27981,-2.04141 -0.50874,-10.14141 -0.50874,-18 v -14.28834 h 14.4 14.4 v 17.04 c 0,12.18667 -0.27343,17.31343 -0.96,18 -0.66748,0.66748 -4.90028,0.96 -13.89126,0.96 h -12.93126 z m 57.1262,2.55376 c -0.6454,-0.77765 -1.1119,-6.68864 -1.42057,-18 l -0.4596,-16.8421 h 14.92261 14.92262 v 17.17185 c 0,16.15855 -0.0913,17.22073 -1.54741,18 -0.86864,0.46489 -6.79128,0.82815 -13.50204,0.82815 -9.45719,0 -12.15539,-0.24189 -12.91561,-1.1579 z m 56.56506,0.29382 c -1.26455,-0.73653 -1.4,-2.47741 -1.4,-17.99372 v -17.17829 l 14.49305,0.21804 14.49304,0.21805 -0.1354,16.64496 c -0.0745,9.15473 -0.33487,17.16473 -0.57864,17.8 -0.36075,0.94009 -2.77214,1.15051 -12.95764,1.13072 -7.00352,-0.0136 -13.13092,-0.38342 -13.91441,-0.83976 z M 94.843691,483.90073 c -25.306225,-0.49793 -25.063115,-0.44868 -30.515174,-6.18268 -1.603349,-1.68627 -3.673349,-4.5816 -4.6,-6.43407 -1.655053,-3.30862 -1.68482,-4.18847 -1.68482,-49.8 v -46.43187 h 75.015793 75.0158 l 7.54302,7.57451 c 4.14866,4.16599 7.36247,7.75507 7.1418,7.97574 -0.22068,0.22067 -32.51215,0.65088 -71.75882,0.95602 l -71.357594,0.5548 v 35.86946 35.86947 h 185.599994 185.6 V 335.31032 206.76853 l 10.67569,-10.75619 10.6757,-10.75619 0.57725,138.69798 c 0.41364,99.38757 0.32935,139.79814 -0.29739,142.57966 -1.64795,7.31367 -5.57815,12.71616 -11.63125,15.98842 l -3.2,1.7299 -170,0.0486 c -93.5,0.0267 -180.26,-0.15326 -192.799999,-0.4 z M 12.474375,402.46462 c -2.8431265,-0.16371 -5.6331265,-0.68257 -6.1999995,-1.15304 -1.240424,-1.02946 -1.459371,-22.74155 -0.248669,-24.65947 0.631008,-0.99961 3.905283,-1.24029 19.6068175,-1.44123 l 18.849309,-0.24123 -0.219068,13.84123 -0.219068,13.84123 -13.2,0.0551 c -7.26,0.0303 -15.526195,-0.0789 -18.369322,-0.24257 z m 474.169315,0.15266 c -0.33,-0.34751 -0.6,-6.69184 -0.6,-14.0985 v -13.46667 h 18.6471 c 14.1016,0 18.99614,0.25522 20.07898,1.04702 2.88722,2.11118 2.72753,24.59991 -0.18293,25.76148 -1.98498,0.79222 -37.24172,1.49531 -37.94315,0.75667 z M 249.25614,386.10763 c -2.0266,-0.5805 -6.94026,-4.90228 -18,-15.83178 -8.36685,-8.26832 -28.62732,-28.30616 -45.02327,-44.52853 l -29.81082,-29.49521 0.0108,-5.24798 0.0108,-5.24797 14.2,-14.05018 c 15.09522,-14.93595 18.30696,-17.44613 22.32816,-17.45088 3.51423,-0.004 6.46642,2.51579 33.38018,28.49289 12.70958,12.26727 23.52237,22.54879 24.02841,22.84784 0.51823,0.30625 2.65468,-1.09136 4.89166,-3.2 35.74623,-33.69533 75.21407,-71.38277 119.57163,-114.17769 43.23274,-41.70974 82.85658,-79.30413 85.2114,-80.84707 3.17247,-2.07869 7.55772,-2.75334 10.34011,-1.59079 3.91387,1.63533 19.39355,16.87531 20.47785,20.16078 1.28005,3.87859 0.44359,7.29828 -2.77532,11.34629 -4.79469,6.02968 -35.19733,39.53064 -66.90517,73.72343 -16.91188,18.23728 -35.03153,37.85728 -40.26589,43.6 -9.15494,10.04408 -15.24294,16.66069 -36.0992,39.23361 -27.77724,30.06355 -76.87803,82.29304 -81.79571,87.00772 -3.14726,3.01734 -6.34392,5.4 -7.24486,5.4 -0.88679,0 -2.09179,0.14714 -2.67778,0.32699 -0.58599,0.17985 -2.31983,-0.0323 -3.85298,-0.47147 z M 57.77703,357.71877 c -0.710278,-0.71027 -0.564611,-166.65516 0.181061,-206.26667 0.559447,-29.71884 0.668701,-31.35663 2.301388,-34.49936 1.874221,-3.60767 4.888031,-6.43916 10.112907,-9.50114 l 3.38832,-1.98569 179.460914,-0.0208 c 98.70351,-0.0114 179.59853,0.1168 179.76672,0.28498 0.16818,0.16819 -4.51831,4.85445 -10.41444,10.41391 l -10.72023,10.1081 H 245.74868 79.643696 v 107.60001 107.6 h 47.602274 47.60229 l 8.59771,8.37316 8.59772,8.37317 -66.86667,0.0268 c -36.776654,0.0148 -67.106656,-0.21316 -67.39999,-0.5065 z M 6.2036975,351.69211 c -1.518676,-1.51868 -1.325761,-24.14054 0.216783,-25.42073 0.840354,-0.69744 6.3865865,-1.01133 19.3999995,-1.09796 l 18.223217,-0.12131 0.218891,13.8 0.218891,13.8 H 25.822588 c -13.445804,0 -18.9271035,-0.26822 -19.6188905,-0.96 z m 480.0211025,-12.84 0.21889,-13.8 17.6,0.055 c 9.68,0.0303 18.56131,0.29992 19.73624,0.59924 1.96487,0.50057 2.18192,0.97072 2.70557,5.86045 0.89981,8.40236 0.0117,18.77517 -1.71573,20.03828 -1.08294,0.79186 -5.9807,1.04702 -20.09787,1.04702 H 486.00591 Z M 11.843697,302.45692 5.2436975,302.1874 v -12.64607 -12.64608 l 8.5244495,-0.52157 c 4.688448,-0.28687 13.508448,-0.52157 19.6,-0.52157 h 11.07555 v 12.33457 c 0,6.78401 -0.218516,12.90401 -0.485591,13.6 -0.417968,1.0892 -2.228328,1.24275 -13,1.10259 -6.882925,-0.0896 -15.484409,-0.28412 -19.114409,-0.43235 z m 474.733323,0.0618 c -0.29333,-0.29328 -0.53333,-6.41328 -0.53333,-13.59995 v -13.06666 l 19,0.0122 c 10.45,0.007 19.51461,0.33791 20.14358,0.73595 1.63071,1.03197 1.77033,23.16543 0.15846,25.12024 -0.96663,1.1723 -3.31885,1.33156 -19.66666,1.33156 -10.21279,0 -18.80871,-0.24 -19.10205,-0.53334 z m 14.86667,-49.66557 -15.4,-0.23559 V 239.5534 226.48925 l 6.6,-0.51378 c 12.52264,-0.97482 30.54465,-0.63272 32.2471,0.61215 1.40896,1.03025 1.5529,2.17185 1.5529,12.31601 0,9.87196 -0.17836,11.37759 -1.52399,12.86449 -1.14783,1.26833 -2.33259,1.63914 -4.8,1.50231 -1.80181,-0.0999 -10.20601,-0.2877 -18.67601,-0.41728 z M 6.7155515,251.82824 c -1.705698,-0.99559 -2.640008,-11.62892 -1.72008,-19.57613 l 0.648226,-5.6 5.4222255,-0.69633 c 2.982225,-0.38298 11.712225,-0.43429 19.4,-0.11401 l 13.977774,0.58232 v 13.11401 13.11401 l -18.2,-0.0243 c -10.24948,-0.0137 -18.7801895,-0.363 -19.5281455,-0.79957 z m 1.328146,-48.67864 -2.4,-0.51321 V 189.8521 177.06782 l 2.4,-0.51321 c 1.32,-0.28226 10.0499995,-0.5558 19.3999995,-0.60785 l 17,-0.0947 v 14 14 l -17,-0.0947 c -9.35,-0.052 -18.0799995,-0.3255 -19.3999995,-0.60776 z M 486.04369,192.36017 c 0,-11.13002 0.0813,-11.71328 1.9313,-13.86346 l 1.93129,-2.24461 h 17.22917 c 13.07426,0 17.47986,0.25091 18.26871,1.04044 1.47664,1.47793 1.47736,23.64148 8.1e-4,25.11968 -0.77878,0.77965 -5.83382,1.10581 -20.2,1.30334 l -19.16128,0.26346 z m 30.08366,-42.97429 c -0.20284,-0.62358 -0.76924,-3.65378 -1.25867,-6.73378 -1.13658,-7.15254 -4.24975,-16.9027 -7.38492,-23.12894 -10.49098,-20.834369 -30.83638,-35.522179 -55.54215,-40.097153 -3.90385,-0.72291 -7.4017,-1.604551 -7.77298,-1.959202 -0.37128,-0.354651 1.96872,-1.084273 5.2,-1.621382 30.00562,-4.987582 53.24869,-24.374239 62.81546,-52.393322 1.05162,-3.080001 2.24049,-7.902249 2.64193,-10.716109 0.91709,-6.4282845 2.04865,-7.7695225 3.02511,-3.5856535 3.2077,13.7441895 4.6744,18.4184505 7.78709,24.8169505 10.80717,22.215438 30.68325,36.523387 58.20547,41.89967 2.53,0.494218 4.6,1.210998 4.6,1.592843 0,0.381845 -1.71,0.922644 -3.8,1.201776 -7.96272,1.06347 -16.8698,3.722268 -24.03868,7.175639 -22.77829,10.972694 -36.81826,30.091323 -41.40242,56.378853 -1.16962,6.70709 -2.33895,9.43335 -3.07524,7.16981 z M 138.51807,92.772448 c -0.56194,-0.909239 0.44098,-32.612568 1.06355,-33.619909 0.78545,-1.270894 24.34543,-1.51872 25.85194,-0.271935 1.9959,1.651797 2.35417,5.882909 1.74998,20.666482 l -0.56828,13.905016 h -13.83857 c -7.61122,0 -14.0276,-0.305844 -14.25862,-0.679654 z m 56.32562,-15.654916 c 0,-8.984014 0.21852,-16.904014 0.48559,-17.600001 0.41445,-1.080032 2.31907,-1.263635 13,-1.253179 6.88293,0.0067 13.05441,0.353109 13.71441,0.769715 0.99057,0.625268 1.24501,3.694796 1.45792,17.58775 l 0.25792,16.830285 h -14.45792 -14.45792 z m 56.36347,11.919229 c -0.67414,-5.395611 -0.12777,-28.887024 0.6909,-29.705694 0.32136,-0.32136 5.64167,-0.882736 11.82292,-1.247503 14.22112,-0.839214 15.23292,-0.477213 16.13976,5.774444 0.35056,2.416751 0.53514,9.974094 0.41017,16.794094 l -0.22722,12.4 -14.14016,0.218216 -14.14016,0.218213 z m 55.94557,2.337763 c -0.29186,-1.162884 -0.34825,-8.770582 -0.1253,-16.905996 0.31171,-11.374249 0.66077,-14.953417 1.51081,-15.491793 0.608,-0.385073 6.56974,-0.705646 13.24831,-0.712383 10.04968,-0.01014 12.36237,0.20727 13.41633,1.261223 1.09563,1.095633 1.24326,3.525535 1.05714,17.4 l -0.21633,16.126527 -14.18015,0.218379 -14.18014,0.21838 z M 364.44369,76.267343 V 59.082585 l 2.2,-0.578215 c 1.21,-0.318019 7.09457,-0.594877 13.07682,-0.615242 8.08724,-0.02753 11.21618,0.244567 12.2,1.060929 1.15359,0.957235 1.32318,3.238599 1.32318,17.8 v 16.702045 h -14.4 -14.4 z M 564.81267,41.358716 c -1.72493,-5.193284 -6.33764,-9.769044 -11.61492,-11.521874 -4.04076,-1.342126 -5.24649,-2.784741 -2.32747,-2.784741 2.45975,0 9.20222,-3.675746 11.04894,-6.023471 0.89836,-1.142076 2.04122,-3.404008 2.53969,-5.026516 0.49847,-1.622507 1.09068,-3.490014 1.31602,-4.150014 0.24405,-0.714824 1.06375,0.533066 2.02738,3.08644 2.14485,5.683276 6.74155,10.085111 12.39138,11.866062 l 4.38903,1.383521 -4.24804,1.443953 c -6.54377,2.224297 -12.69099,8.899151 -12.69099,13.780297 0,3.328764 -1.37442,2.33174 -2.83102,-2.053657 z"
       id="path8" />
  </g>
</svg>
